<mxfile host="app.diagrams.net" agent="Mozilla/5.0 (Windows NT 10.0; Win64; x64) AppleWebKit/537.36 (KHTML, like Gecko) Chrome/127.0.0.0 Safari/537.36" version="24.7.6" pages="2">
  <diagram name="Page-1" id="hqIrloKZYDBKBiJjjwyM">
    <mxGraphModel dx="1793" dy="965" grid="1" gridSize="10" guides="1" tooltips="1" connect="1" arrows="1" fold="1" page="1" pageScale="1" pageWidth="850" pageHeight="1100" math="0" shadow="0">
      <root>
        <mxCell id="0" />
        <mxCell id="1" parent="0" />
        <mxCell id="hDSugoQmHQuq1v9vFUxT-6" value="" style="rounded=0;whiteSpace=wrap;html=1;" vertex="1" parent="1">
          <mxGeometry x="625" y="320" width="450" height="700" as="geometry" />
        </mxCell>
        <mxCell id="hDSugoQmHQuq1v9vFUxT-1" value="Sekertaris" style="shape=umlActor;verticalLabelPosition=bottom;verticalAlign=top;html=1;outlineConnect=0;" vertex="1" parent="1">
          <mxGeometry x="350" y="500" width="130" height="210" as="geometry" />
        </mxCell>
        <mxCell id="hDSugoQmHQuq1v9vFUxT-3" value="&lt;font style=&quot;font-size: 26px;&quot;&gt;Use Case Diagram Presensi Guru dan Siswa&lt;/font&gt;" style="text;html=1;align=center;verticalAlign=middle;whiteSpace=wrap;rounded=0;" vertex="1" parent="1">
          <mxGeometry x="550" y="230" width="580" height="30" as="geometry" />
        </mxCell>
        <mxCell id="hDSugoQmHQuq1v9vFUxT-8" value="" style="ellipse;whiteSpace=wrap;html=1;" vertex="1" parent="1">
          <mxGeometry x="710" y="380" width="290" height="130" as="geometry" />
        </mxCell>
        <mxCell id="hDSugoQmHQuq1v9vFUxT-9" value="&lt;span style=&quot;font-size: 26px;&quot;&gt;Form Mengontrol Kelas&lt;/span&gt;" style="text;html=1;align=center;verticalAlign=middle;whiteSpace=wrap;rounded=0;" vertex="1" parent="1">
          <mxGeometry x="700" y="430" width="300" height="30" as="geometry" />
        </mxCell>
        <mxCell id="hDSugoQmHQuq1v9vFUxT-10" value="" style="ellipse;whiteSpace=wrap;html=1;" vertex="1" parent="1">
          <mxGeometry x="710" y="540" width="290" height="130" as="geometry" />
        </mxCell>
        <mxCell id="hDSugoQmHQuq1v9vFUxT-11" value="" style="ellipse;whiteSpace=wrap;html=1;" vertex="1" parent="1">
          <mxGeometry x="720" y="700" width="290" height="130" as="geometry" />
        </mxCell>
        <mxCell id="hDSugoQmHQuq1v9vFUxT-12" value="&lt;span style=&quot;font-size: 26px;&quot;&gt;Form Izin Siswa dan Tamu&lt;/span&gt;" style="text;html=1;align=center;verticalAlign=middle;whiteSpace=wrap;rounded=0;" vertex="1" parent="1">
          <mxGeometry x="710" y="590" width="300" height="30" as="geometry" />
        </mxCell>
        <mxCell id="hDSugoQmHQuq1v9vFUxT-13" value="&lt;span style=&quot;font-size: 26px;&quot;&gt;Pencarian Rekapitulasi&lt;/span&gt;" style="text;html=1;align=center;verticalAlign=middle;whiteSpace=wrap;rounded=0;" vertex="1" parent="1">
          <mxGeometry x="720" y="750" width="300" height="30" as="geometry" />
        </mxCell>
        <mxCell id="hDSugoQmHQuq1v9vFUxT-14" value="" style="ellipse;whiteSpace=wrap;html=1;" vertex="1" parent="1">
          <mxGeometry x="715" y="860" width="290" height="130" as="geometry" />
        </mxCell>
        <mxCell id="hDSugoQmHQuq1v9vFUxT-15" value="&lt;span style=&quot;font-size: 26px;&quot;&gt;Laporan Rekapitulasi&lt;/span&gt;" style="text;html=1;align=center;verticalAlign=middle;whiteSpace=wrap;rounded=0;" vertex="1" parent="1">
          <mxGeometry x="715" y="910" width="300" height="30" as="geometry" />
        </mxCell>
        <mxCell id="hDSugoQmHQuq1v9vFUxT-16" value="Guru Piket" style="shape=umlActor;verticalLabelPosition=bottom;verticalAlign=top;html=1;outlineConnect=0;" vertex="1" parent="1">
          <mxGeometry x="1260" y="510" width="130" height="210" as="geometry" />
        </mxCell>
        <mxCell id="hDSugoQmHQuq1v9vFUxT-17" value="&lt;span style=&quot;font-size: 26px;&quot;&gt;Presensi Guru Piket&lt;/span&gt;" style="text;html=1;align=center;verticalAlign=middle;whiteSpace=wrap;rounded=0;" vertex="1" parent="1">
          <mxGeometry x="690" y="330" width="300" height="30" as="geometry" />
        </mxCell>
        <mxCell id="hDSugoQmHQuq1v9vFUxT-22" value="" style="endArrow=none;html=1;rounded=0;entryX=0.034;entryY=0.69;entryDx=0;entryDy=0;entryPerimeter=0;" edge="1" parent="1" source="hDSugoQmHQuq1v9vFUxT-1" target="hDSugoQmHQuq1v9vFUxT-8">
          <mxGeometry width="50" height="50" relative="1" as="geometry">
            <mxPoint x="830" y="600" as="sourcePoint" />
            <mxPoint x="880" y="550" as="targetPoint" />
          </mxGeometry>
        </mxCell>
        <mxCell id="hDSugoQmHQuq1v9vFUxT-23" value="" style="endArrow=none;html=1;rounded=0;exitX=1;exitY=0.5;exitDx=0;exitDy=0;" edge="1" parent="1" source="hDSugoQmHQuq1v9vFUxT-9">
          <mxGeometry width="50" height="50" relative="1" as="geometry">
            <mxPoint x="1050" y="510" as="sourcePoint" />
            <mxPoint x="1270" y="590" as="targetPoint" />
          </mxGeometry>
        </mxCell>
        <mxCell id="hDSugoQmHQuq1v9vFUxT-26" value="" style="endArrow=none;html=1;rounded=0;entryX=0;entryY=0.3333333333333333;entryDx=0;entryDy=0;entryPerimeter=0;exitX=0.967;exitY=0.333;exitDx=0;exitDy=0;exitPerimeter=0;" edge="1" parent="1" source="hDSugoQmHQuq1v9vFUxT-12">
          <mxGeometry width="50" height="50" relative="1" as="geometry">
            <mxPoint x="1010" y="455" as="sourcePoint" />
            <mxPoint x="1270" y="590" as="targetPoint" />
          </mxGeometry>
        </mxCell>
        <mxCell id="hDSugoQmHQuq1v9vFUxT-27" value="" style="endArrow=none;html=1;rounded=0;exitX=0.967;exitY=0.667;exitDx=0;exitDy=0;exitPerimeter=0;" edge="1" parent="1" source="hDSugoQmHQuq1v9vFUxT-13">
          <mxGeometry width="50" height="50" relative="1" as="geometry">
            <mxPoint x="1010" y="610" as="sourcePoint" />
            <mxPoint x="1270" y="590" as="targetPoint" />
          </mxGeometry>
        </mxCell>
        <mxCell id="hDSugoQmHQuq1v9vFUxT-28" value="" style="endArrow=none;html=1;rounded=0;exitX=0.95;exitY=0.667;exitDx=0;exitDy=0;exitPerimeter=0;" edge="1" parent="1" source="hDSugoQmHQuq1v9vFUxT-15">
          <mxGeometry width="50" height="50" relative="1" as="geometry">
            <mxPoint x="1020" y="780" as="sourcePoint" />
            <mxPoint x="1270" y="590" as="targetPoint" />
          </mxGeometry>
        </mxCell>
      </root>
    </mxGraphModel>
  </diagram>
  <diagram id="sJ_zb6SLy1MujL0VUmel" name="Page-2">
    <mxGraphModel dx="1509" dy="813" grid="1" gridSize="10" guides="1" tooltips="1" connect="1" arrows="1" fold="1" page="1" pageScale="1" pageWidth="850" pageHeight="1100" math="0" shadow="0">
      <root>
        <mxCell id="0" />
        <mxCell id="1" parent="0" />
        <mxCell id="S3ZoFkBdJXJoMNtGSi8T-3" value="Keanggotaan" style="swimlane;fontStyle=0;childLayout=stackLayout;horizontal=1;startSize=30;horizontalStack=0;resizeParent=1;resizeParentMax=0;resizeLast=0;collapsible=1;marginBottom=0;whiteSpace=wrap;html=1;" vertex="1" parent="1">
          <mxGeometry x="130" y="140" width="140" height="150" as="geometry" />
        </mxCell>
        <mxCell id="S3ZoFkBdJXJoMNtGSi8T-4" value="id: int" style="text;strokeColor=none;fillColor=none;align=left;verticalAlign=middle;spacingLeft=4;spacingRight=4;overflow=hidden;points=[[0,0.5],[1,0.5]];portConstraint=eastwest;rotatable=0;whiteSpace=wrap;html=1;" vertex="1" parent="S3ZoFkBdJXJoMNtGSi8T-3">
          <mxGeometry y="30" width="140" height="30" as="geometry" />
        </mxCell>
        <mxCell id="S3ZoFkBdJXJoMNtGSi8T-5" value="nama: char" style="text;strokeColor=none;fillColor=none;align=left;verticalAlign=middle;spacingLeft=4;spacingRight=4;overflow=hidden;points=[[0,0.5],[1,0.5]];portConstraint=eastwest;rotatable=0;whiteSpace=wrap;html=1;" vertex="1" parent="S3ZoFkBdJXJoMNtGSi8T-3">
          <mxGeometry y="60" width="140" height="30" as="geometry" />
        </mxCell>
        <mxCell id="S3ZoFkBdJXJoMNtGSi8T-6" value="keterangan: char" style="text;strokeColor=none;fillColor=none;align=left;verticalAlign=middle;spacingLeft=4;spacingRight=4;overflow=hidden;points=[[0,0.5],[1,0.5]];portConstraint=eastwest;rotatable=0;whiteSpace=wrap;html=1;" vertex="1" parent="S3ZoFkBdJXJoMNtGSi8T-3">
          <mxGeometry y="90" width="140" height="30" as="geometry" />
        </mxCell>
        <mxCell id="S3ZoFkBdJXJoMNtGSi8T-8" value="keterangan: char" style="text;strokeColor=none;fillColor=none;align=left;verticalAlign=middle;spacingLeft=4;spacingRight=4;overflow=hidden;points=[[0,0.5],[1,0.5]];portConstraint=eastwest;rotatable=0;whiteSpace=wrap;html=1;" vertex="1" parent="S3ZoFkBdJXJoMNtGSi8T-3">
          <mxGeometry y="120" width="140" height="30" as="geometry" />
        </mxCell>
        <mxCell id="S3ZoFkBdJXJoMNtGSi8T-7" value="Tampilkan()" style="rounded=0;whiteSpace=wrap;html=1;" vertex="1" parent="1">
          <mxGeometry x="130" y="260" width="140" height="30" as="geometry" />
        </mxCell>
        <mxCell id="S3ZoFkBdJXJoMNtGSi8T-9" value="Keperluan" style="swimlane;fontStyle=0;childLayout=stackLayout;horizontal=1;startSize=30;horizontalStack=0;resizeParent=1;resizeParentMax=0;resizeLast=0;collapsible=1;marginBottom=0;whiteSpace=wrap;html=1;" vertex="1" parent="1">
          <mxGeometry x="130" y="360" width="140" height="90" as="geometry" />
        </mxCell>
        <mxCell id="S3ZoFkBdJXJoMNtGSi8T-10" value="id: int" style="text;strokeColor=none;fillColor=none;align=left;verticalAlign=middle;spacingLeft=4;spacingRight=4;overflow=hidden;points=[[0,0.5],[1,0.5]];portConstraint=eastwest;rotatable=0;whiteSpace=wrap;html=1;" vertex="1" parent="S3ZoFkBdJXJoMNtGSi8T-9">
          <mxGeometry y="30" width="140" height="30" as="geometry" />
        </mxCell>
        <mxCell id="S3ZoFkBdJXJoMNtGSi8T-11" value="nama: char" style="text;strokeColor=none;fillColor=none;align=left;verticalAlign=middle;spacingLeft=4;spacingRight=4;overflow=hidden;points=[[0,0.5],[1,0.5]];portConstraint=eastwest;rotatable=0;whiteSpace=wrap;html=1;" vertex="1" parent="S3ZoFkBdJXJoMNtGSi8T-9">
          <mxGeometry y="60" width="140" height="30" as="geometry" />
        </mxCell>
        <mxCell id="S3ZoFkBdJXJoMNtGSi8T-14" value="Tampilkan()" style="rounded=0;whiteSpace=wrap;html=1;" vertex="1" parent="1">
          <mxGeometry x="130" y="450" width="140" height="30" as="geometry" />
        </mxCell>
        <mxCell id="S3ZoFkBdJXJoMNtGSi8T-15" value="Rekapitulasi kelas" style="swimlane;fontStyle=0;childLayout=stackLayout;horizontal=1;startSize=30;horizontalStack=0;resizeParent=1;resizeParentMax=0;resizeLast=0;collapsible=1;marginBottom=0;whiteSpace=wrap;html=1;" vertex="1" parent="1">
          <mxGeometry x="450" y="340" width="140" height="360" as="geometry" />
        </mxCell>
        <mxCell id="S3ZoFkBdJXJoMNtGSi8T-16" value="id: int" style="text;strokeColor=none;fillColor=none;align=left;verticalAlign=middle;spacingLeft=4;spacingRight=4;overflow=hidden;points=[[0,0.5],[1,0.5]];portConstraint=eastwest;rotatable=0;whiteSpace=wrap;html=1;" vertex="1" parent="S3ZoFkBdJXJoMNtGSi8T-15">
          <mxGeometry y="30" width="140" height="30" as="geometry" />
        </mxCell>
        <mxCell id="S3ZoFkBdJXJoMNtGSi8T-17" value="Kelas: int" style="text;strokeColor=none;fillColor=none;align=left;verticalAlign=middle;spacingLeft=4;spacingRight=4;overflow=hidden;points=[[0,0.5],[1,0.5]];portConstraint=eastwest;rotatable=0;whiteSpace=wrap;html=1;" vertex="1" parent="S3ZoFkBdJXJoMNtGSi8T-15">
          <mxGeometry y="60" width="140" height="30" as="geometry" />
        </mxCell>
        <mxCell id="S3ZoFkBdJXJoMNtGSi8T-18" value="Nama guru: char" style="text;strokeColor=none;fillColor=none;align=left;verticalAlign=middle;spacingLeft=4;spacingRight=4;overflow=hidden;points=[[0,0.5],[1,0.5]];portConstraint=eastwest;rotatable=0;whiteSpace=wrap;html=1;" vertex="1" parent="S3ZoFkBdJXJoMNtGSi8T-15">
          <mxGeometry y="90" width="140" height="30" as="geometry" />
        </mxCell>
        <mxCell id="S3ZoFkBdJXJoMNtGSi8T-19" value="Total: int" style="text;strokeColor=none;fillColor=none;align=left;verticalAlign=middle;spacingLeft=4;spacingRight=4;overflow=hidden;points=[[0,0.5],[1,0.5]];portConstraint=eastwest;rotatable=0;whiteSpace=wrap;html=1;" vertex="1" parent="S3ZoFkBdJXJoMNtGSi8T-15">
          <mxGeometry y="120" width="140" height="30" as="geometry" />
        </mxCell>
        <mxCell id="S3ZoFkBdJXJoMNtGSi8T-20" value="hadir: int" style="text;strokeColor=none;fillColor=none;align=left;verticalAlign=middle;spacingLeft=4;spacingRight=4;overflow=hidden;points=[[0,0.5],[1,0.5]];portConstraint=eastwest;rotatable=0;whiteSpace=wrap;html=1;" vertex="1" parent="S3ZoFkBdJXJoMNtGSi8T-15">
          <mxGeometry y="150" width="140" height="30" as="geometry" />
        </mxCell>
        <mxCell id="S3ZoFkBdJXJoMNtGSi8T-21" value="Tidak hadir: int" style="text;strokeColor=none;fillColor=none;align=left;verticalAlign=middle;spacingLeft=4;spacingRight=4;overflow=hidden;points=[[0,0.5],[1,0.5]];portConstraint=eastwest;rotatable=0;whiteSpace=wrap;html=1;" vertex="1" parent="S3ZoFkBdJXJoMNtGSi8T-15">
          <mxGeometry y="180" width="140" height="30" as="geometry" />
        </mxCell>
        <mxCell id="S3ZoFkBdJXJoMNtGSi8T-22" value="Sakit:int" style="text;strokeColor=none;fillColor=none;align=left;verticalAlign=middle;spacingLeft=4;spacingRight=4;overflow=hidden;points=[[0,0.5],[1,0.5]];portConstraint=eastwest;rotatable=0;whiteSpace=wrap;html=1;" vertex="1" parent="S3ZoFkBdJXJoMNtGSi8T-15">
          <mxGeometry y="210" width="140" height="30" as="geometry" />
        </mxCell>
        <mxCell id="S3ZoFkBdJXJoMNtGSi8T-23" value="Ijij: int" style="text;strokeColor=none;fillColor=none;align=left;verticalAlign=middle;spacingLeft=4;spacingRight=4;overflow=hidden;points=[[0,0.5],[1,0.5]];portConstraint=eastwest;rotatable=0;whiteSpace=wrap;html=1;" vertex="1" parent="S3ZoFkBdJXJoMNtGSi8T-15">
          <mxGeometry y="240" width="140" height="30" as="geometry" />
        </mxCell>
        <mxCell id="S3ZoFkBdJXJoMNtGSi8T-24" value="Alpa: int" style="text;strokeColor=none;fillColor=none;align=left;verticalAlign=middle;spacingLeft=4;spacingRight=4;overflow=hidden;points=[[0,0.5],[1,0.5]];portConstraint=eastwest;rotatable=0;whiteSpace=wrap;html=1;" vertex="1" parent="S3ZoFkBdJXJoMNtGSi8T-15">
          <mxGeometry y="270" width="140" height="30" as="geometry" />
        </mxCell>
        <mxCell id="S3ZoFkBdJXJoMNtGSi8T-25" value="Dispen: int" style="text;strokeColor=none;fillColor=none;align=left;verticalAlign=middle;spacingLeft=4;spacingRight=4;overflow=hidden;points=[[0,0.5],[1,0.5]];portConstraint=eastwest;rotatable=0;whiteSpace=wrap;html=1;" vertex="1" parent="S3ZoFkBdJXJoMNtGSi8T-15">
          <mxGeometry y="300" width="140" height="30" as="geometry" />
        </mxCell>
        <mxCell id="S3ZoFkBdJXJoMNtGSi8T-26" value="Lainnya: char" style="text;strokeColor=none;fillColor=none;align=left;verticalAlign=middle;spacingLeft=4;spacingRight=4;overflow=hidden;points=[[0,0.5],[1,0.5]];portConstraint=eastwest;rotatable=0;whiteSpace=wrap;html=1;" vertex="1" parent="S3ZoFkBdJXJoMNtGSi8T-15">
          <mxGeometry y="330" width="140" height="30" as="geometry" />
        </mxCell>
        <mxCell id="S3ZoFkBdJXJoMNtGSi8T-27" value="Tampilkan()&lt;div&gt;Cari kelas()&lt;/div&gt;" style="rounded=0;whiteSpace=wrap;html=1;" vertex="1" parent="1">
          <mxGeometry x="450" y="700" width="140" height="40" as="geometry" />
        </mxCell>
        <mxCell id="S3ZoFkBdJXJoMNtGSi8T-28" value="Rekapitulasi izin" style="swimlane;fontStyle=0;childLayout=stackLayout;horizontal=1;startSize=30;horizontalStack=0;resizeParent=1;resizeParentMax=0;resizeLast=0;collapsible=1;marginBottom=0;whiteSpace=wrap;html=1;" vertex="1" parent="1">
          <mxGeometry x="450" y="50" width="140" height="240" as="geometry" />
        </mxCell>
        <mxCell id="S3ZoFkBdJXJoMNtGSi8T-29" value="id: int" style="text;strokeColor=none;fillColor=none;align=left;verticalAlign=middle;spacingLeft=4;spacingRight=4;overflow=hidden;points=[[0,0.5],[1,0.5]];portConstraint=eastwest;rotatable=0;whiteSpace=wrap;html=1;" vertex="1" parent="S3ZoFkBdJXJoMNtGSi8T-28">
          <mxGeometry y="30" width="140" height="30" as="geometry" />
        </mxCell>
        <mxCell id="S3ZoFkBdJXJoMNtGSi8T-31" value="nama: char" style="text;strokeColor=none;fillColor=none;align=left;verticalAlign=middle;spacingLeft=4;spacingRight=4;overflow=hidden;points=[[0,0.5],[1,0.5]];portConstraint=eastwest;rotatable=0;whiteSpace=wrap;html=1;" vertex="1" parent="S3ZoFkBdJXJoMNtGSi8T-28">
          <mxGeometry y="60" width="140" height="30" as="geometry" />
        </mxCell>
        <mxCell id="S3ZoFkBdJXJoMNtGSi8T-32" value="Keanggotaan: char" style="text;strokeColor=none;fillColor=none;align=left;verticalAlign=middle;spacingLeft=4;spacingRight=4;overflow=hidden;points=[[0,0.5],[1,0.5]];portConstraint=eastwest;rotatable=0;whiteSpace=wrap;html=1;" vertex="1" parent="S3ZoFkBdJXJoMNtGSi8T-28">
          <mxGeometry y="90" width="140" height="30" as="geometry" />
        </mxCell>
        <mxCell id="S3ZoFkBdJXJoMNtGSi8T-33" value="kelas: char" style="text;strokeColor=none;fillColor=none;align=left;verticalAlign=middle;spacingLeft=4;spacingRight=4;overflow=hidden;points=[[0,0.5],[1,0.5]];portConstraint=eastwest;rotatable=0;whiteSpace=wrap;html=1;" vertex="1" parent="S3ZoFkBdJXJoMNtGSi8T-28">
          <mxGeometry y="120" width="140" height="30" as="geometry" />
        </mxCell>
        <mxCell id="S3ZoFkBdJXJoMNtGSi8T-34" value="jurusan: char" style="text;strokeColor=none;fillColor=none;align=left;verticalAlign=middle;spacingLeft=4;spacingRight=4;overflow=hidden;points=[[0,0.5],[1,0.5]];portConstraint=eastwest;rotatable=0;whiteSpace=wrap;html=1;" vertex="1" parent="S3ZoFkBdJXJoMNtGSi8T-28">
          <mxGeometry y="150" width="140" height="30" as="geometry" />
        </mxCell>
        <mxCell id="S3ZoFkBdJXJoMNtGSi8T-35" value="tanggal: date" style="text;strokeColor=none;fillColor=none;align=left;verticalAlign=middle;spacingLeft=4;spacingRight=4;overflow=hidden;points=[[0,0.5],[1,0.5]];portConstraint=eastwest;rotatable=0;whiteSpace=wrap;html=1;" vertex="1" parent="S3ZoFkBdJXJoMNtGSi8T-28">
          <mxGeometry y="180" width="140" height="30" as="geometry" />
        </mxCell>
        <mxCell id="S3ZoFkBdJXJoMNtGSi8T-36" value="keperluan: char" style="text;strokeColor=none;fillColor=none;align=left;verticalAlign=middle;spacingLeft=4;spacingRight=4;overflow=hidden;points=[[0,0.5],[1,0.5]];portConstraint=eastwest;rotatable=0;whiteSpace=wrap;html=1;" vertex="1" parent="S3ZoFkBdJXJoMNtGSi8T-28">
          <mxGeometry y="210" width="140" height="30" as="geometry" />
        </mxCell>
        <mxCell id="S3ZoFkBdJXJoMNtGSi8T-40" value="Tampilkan()" style="rounded=0;whiteSpace=wrap;html=1;" vertex="1" parent="1">
          <mxGeometry x="450" y="290" width="140" height="30" as="geometry" />
        </mxCell>
        <mxCell id="S3ZoFkBdJXJoMNtGSi8T-43" value="" style="edgeStyle=entityRelationEdgeStyle;fontSize=12;html=1;endArrow=ERoneToMany;startArrow=ERoneToMany;rounded=0;entryX=0;entryY=0.5;entryDx=0;entryDy=0;" edge="1" parent="1" target="S3ZoFkBdJXJoMNtGSi8T-36">
          <mxGeometry width="100" height="100" relative="1" as="geometry">
            <mxPoint x="270" y="380" as="sourcePoint" />
            <mxPoint x="370" y="280" as="targetPoint" />
            <Array as="points">
              <mxPoint x="380" y="380" />
            </Array>
          </mxGeometry>
        </mxCell>
        <mxCell id="S3ZoFkBdJXJoMNtGSi8T-44" value="" style="edgeStyle=entityRelationEdgeStyle;fontSize=12;html=1;endArrow=ERzeroToMany;endFill=1;rounded=0;entryX=0;entryY=0.5;entryDx=0;entryDy=0;" edge="1" parent="1" target="S3ZoFkBdJXJoMNtGSi8T-32">
          <mxGeometry width="100" height="100" relative="1" as="geometry">
            <mxPoint x="270" y="190" as="sourcePoint" />
            <mxPoint x="370" y="90" as="targetPoint" />
          </mxGeometry>
        </mxCell>
        <mxCell id="NxeNLUfO-GiSVidLabVK-1" value="&lt;font style=&quot;font-size: 26px;&quot;&gt;Class&amp;nbsp; Diagram Presensi Guru dan Siswa&lt;/font&gt;" style="text;html=1;align=center;verticalAlign=middle;whiteSpace=wrap;rounded=0;" vertex="1" parent="1">
          <mxGeometry x="165" width="520" height="30" as="geometry" />
        </mxCell>
      </root>
    </mxGraphModel>
  </diagram>
</mxfile>
